<svg xmlns="http://www.w3.org/2000/svg" viewBox="0 0 512 512"><path d="M494.5 138.6L364 3c-1.8-2-4.4-3-7-3H162.4a39.5 39.5 0 0 0-39.4 39.4v137.8H44.3a29.6 29.6 0 0 0-29.5 29.5v147.8A29.5 29.5 0 0 0 44.3 384H123v88.6a39.5 39.5 0 0 0 39.4 39.4h295.3a39.4 39.4 0 0 0 39.4-39.4V145.4c0-2.6-1-5-2.7-6.8zm-135.1-112l107 111.2h-107V26.6zM44.3 364.3a9.8 9.8 0 0 1-9.8-9.8V206.7c0-5.4 4.4-9.8 9.8-9.8h265.9c5.4 0 9.8 4.4 9.8 9.8v147.8c0 5.4-4.4 9.8-9.8 9.8h-266zm433.2 108.3c0 10.9-8.8 19.7-19.7 19.7H162.5a19.7 19.7 0 0 1-19.7-19.7V384h167.4a29.5 29.5 0 0 0 29.5-29.5V206.7a29.6 29.6 0 0 0-29.5-29.5H142.8V39.4c0-10.8 8.8-19.7 19.7-19.7h177.2v128c0 5.4 4.4 9.8 9.8 9.8h128v315.1z"/><path d="M132.5 249.9c-3.3-4.3-7.3-7-12.2-8.3-3.1-.8-10-1.3-20.3-1.3H72.6V325h17V293h11.2c7.7 0 13.6-.4 17.7-1.2 3-.6 6-2 8.9-4 2.9-2 5.3-4.8 7.2-8.3 1.8-3.6 2.8-8 2.8-13.1 0-6.8-1.7-12.3-5-16.5zm-14.6 23.3c-1.3 1.9-3.1 3.2-5.4 4.1s-6.8 1.4-13.5 1.4h-9.3v-24h8.2a82 82 0 0 1 12.3.5c2.8.5 5 1.8 6.9 3.8a11 11 0 0 1 2.7 7.6c0 2.5-.7 4.7-2 6.6zM219.5 263.5c-1.9-5.5-4.6-10-8.1-13.8s-7.8-6.3-12.7-7.7a61 61 0 0 0-16.1-1.7h-31.3V325h32.2c6.3 0 11.3-.6 15.1-1.8 5-1.6 9-3.8 12-6.7 4-3.8 7-8.8 9-15 1.8-5 2.7-11 2.7-18 0-7.9-1-14.5-2.8-20zm-16.6 34.7a17.9 17.9 0 0 1-4.5 8.1 15.8 15.8 0 0 1-6.9 3.6c-2.1.5-5.6.8-10.3.8h-12.8v-56h7.7c7 0 11.6.2 14 .8 3.2.7 5.8 2 8 4 2 1.9 3.6 4.6 4.8 8.1 1.1 3.5 1.7 8.6 1.7 15 0 6.6-.6 11.8-1.7 15.6zM294.8 254.7v-14.4h-58V325H254v-36h35.3v-14.2H254v-20z"/></svg>
