<svg xmlns="http://www.w3.org/2000/svg" width="1260" height="1446" viewBox="0 0 1260 1446"><title>icon-map-pin-with-icon</title><path d="M630,0c348,0,630,282,630,630,0,301-216,534-494,615-60,18-88,90-136,201-48-111-76-183-136-201C216,1164,0,931,0,630,0,282,282,0,630,0Z" fill="#f33" fill-rule="evenodd"/><path d="M630,426.1a52.1,52.1,0,0,0-54.4-52c-27.9,1.3-49.6,24.8-49.6,52.7v99.3H426.7c-27.9,0-51.4,21.7-52.6,49.6A51.9,51.9,0,0,0,426,630.1" fill="none" stroke="#fff" stroke-linecap="round" stroke-linejoin="round" stroke-width="60"/><path d="M630,834.1A51.9,51.9,0,0,0,684.4,886c27.9-1.2,49.6-24.7,49.6-52.7V734.1h99.3c27.9,0,51.4-21.7,52.6-49.6A51.9,51.9,0,0,0,834,630.1" fill="none" stroke="#fff" stroke-linecap="round" stroke-linejoin="round" stroke-width="60"/><path d="M629.6,734.1V834c0,28.5-22.6,52.3-51.2,52.6S526,863.5,526,834.5V734.1H427.3c-26.7,0-49.6-19.8-52.4-46.3-3.4-31.5,20.9-58.1,51.5-58.1H832.8c29.1,0,53.2-23.7,52.6-52.9a51.7,51.7,0,0,0-51.8-50.7H734V427.3c0-29.2-23.7-53.2-52.9-52.7a51.8,51.8,0,0,0-50.7,51.8v99.7" fill="none" stroke="#fff" stroke-linecap="round" stroke-linejoin="round" stroke-width="60"/></svg>