<svg xmlns="http://www.w3.org/2000/svg" width="1260" height="1446" viewBox="0 0 1260 1446"><path fill="#fff" fill-rule="evenodd" d="M630 1383c-38.1-86.7-68.7-143.9-128.8-161.9h-.2a728.1 728.1 0 0 1-188-85 660.3 660.3 0 0 1-151.1-132A576.6 576.6 0 0 1 25 630a605 605 0 1 1 1210 0c0 137.7-47.3 267-136.9 374A660.3 660.3 0 0 1 947 1136a728.1 728.1 0 0 1-188 85h-.2c-60.1 18.1-90.7 75.3-128.8 162z"/><path fill="#e31e24" d="M630 50a575.6 575.6 0 0 1 225.8 45.6 580.7 580.7 0 0 1 308.6 308.6A575.6 575.6 0 0 1 1210 630a551.2 551.2 0 0 1-131.1 357.9 633.2 633.2 0 0 1-145.4 127A699.5 699.5 0 0 1 752 1197h-.4c-56.5 17-90 62.1-121.6 126.2-31.6-64.1-65.1-109.2-121.6-126.2h-.4a699.5 699.5 0 0 1-181.5-82.1 633.2 633.2 0 0 1-145.4-127A551.2 551.2 0 0 1 50 630a575.6 575.6 0 0 1 45.6-225.8A580.7 580.7 0 0 1 404.2 95.6 575.6 575.6 0 0 1 630 50m0-50A630 630 0 0 0 0 630c0 301 216 534 494 615 60 18 88 90 136 201 48-111 76-183 136-201 278-81 494-314 494-615C1260 282 978 0 630 0z"/><path fill="none" stroke="#b7b6b6" stroke-linecap="round" stroke-linejoin="round" stroke-width="50" d="M630 426.6a52 52 0 0 0-104 0v100H426a52 52 0 0 0 0 104M630 834.6a52 52 0 0 0 104 0v-100h100a52 52 0 0 0 0-104"/><path fill="none" stroke="#e31e24" stroke-linecap="round" stroke-linejoin="round" stroke-width="50" d="M630 734.6v100a52 52 0 0 1-104 0v-100H426a52 52 0 1 1 0-104h408a52 52 0 0 0 0-104H734v-100a52 52 0 1 0-104 0v100"/></svg>
